<?xml version="1.0" encoding="UTF-8"?><svg xmlns="http://www.w3.org/2000/svg" xmlns:xlink="http://www.w3.org/1999/xlink" version="1.1" width="64" height="64" viewBox="0 0 64 64" preserveAspectRatio="none"><defs><linearGradient id="a"><stop offset="0" stop-color="#919caf"/><stop offset=".262" stop-color="#68758e"/><stop offset=".705" stop-color="#485a6c"/><stop offset="1" stop-color="#444c5c"/></linearGradient><radialGradient id="b" cx="6.73" cy="9.957" r="12.672" fx="6.2" fy="9.957" gradientTransform="matrix(0 22.07544 -27.10159 0 273.252 -245.766)" gradientUnits="userSpaceOnUse" xlink:href="#a"/></defs><g fill="#fff" stroke="#3b80ae" stroke-width="2.459"><path stroke="#bababa" stroke-width="1.809" d="M62.743 35.195c1.513 5.8-1.962 11.728-7.762 13.24L19.977 57.57c-5.8 1.513-11.728-1.962-13.24-7.763l-5.48-21.002c-1.513-5.8 1.962-11.727 7.762-13.24L44.023 6.43c5.8-1.513 11.727 1.962 13.24 7.762l5.48 21.002z"/><path fill="#3b80ae" stroke="none" d="M59.187 34.446c1.287 5.778-1.336 10.02-6.991 11.364l-31.07 8.106c-5.568 1.763-10.364-.869-11.651-6.5L4.814 29.554c-1.287-5.992.522-9.482 6.99-11.364l31.071-8.105c5.991-1.344 10.365 1.002 11.651 6.499z"/></g><path fill="none" stroke="#fff" stroke-width="1.809" d="M33.512 43.285l-15.77-15.221 28.027-3.232z" opacity=".5"/><path fill="#fff" stroke="#3b80ae" stroke-width="1.809" d="M53.215 26.348a2.136 2.136 0 0 1-1.527 2.605l-9.07 2.366a2.136 2.136 0 0 1-2.606-1.527l-1.689-6.474a2.135 2.135 0 0 1 1.528-2.606l9.07-2.366a2.136 2.136 0 0 1 2.605 1.527l1.689 6.474zM26.868 29.92a2.618 2.618 0 0 1-1.872 3.193l-11.117 2.9a2.617 2.617 0 0 1-3.192-1.871l-2.07-7.935a2.617 2.617 0 0 1 1.87-3.192l11.118-2.9a2.616 2.616 0 0 1 3.193 1.871l2.07 7.935zm11.758 14.406a1.466 1.466 0 0 1-1.049 1.789l-6.229 1.624a1.466 1.466 0 0 1-1.788-1.049l-1.16-4.445a1.468 1.468 0 0 1 1.048-1.79l6.23-1.624a1.467 1.467 0 0 1 1.788 1.049l1.16 4.445z"/><path fill="url(#b)" d="M21.862 38.555c4.69-4.882 8.974-9.957 9.522-11.279.547-1.321 2.705-3.93 4.795-5.798 5.47-4.889 8.662-4.505 11.409 1.371.7 1.497 1.663 2.722 2.14 2.722 1.092 0 6.128-4.902 6.128-5.965 0-1.377-2.584-3.75-4.083-3.75-1.58 0-3.094-2.27-3.094-4.64 0-1.797-4.945-6.797-8.534-8.63-1.71-.873-4.655-1.303-8.925-1.303-6.454 0-9.152 1.07-5.021 1.99 1.241.277 3.577 1.608 5.19 2.959 4.156 3.477 3.988 6.09-.75 11.721-2.028 2.409-4.183 4.38-4.79 4.38-1.344 0-19.438 16.822-19.438 18.07 0 .944 5.555 7.028 6.416 7.028.28 0 4.346-3.994 9.035-8.876z" color="#000" transform="translate(0 5.174) scale(.73563)" style="isolation:auto;mix-blend-mode:normal;solid-color:#000;solid-opacity:1;marker:none"/></svg>
